<?xml version="1.0" encoding="utf-8"?>
<!-- Generator: Adobe Illustrator 25.4.1, SVG Export Plug-In . SVG Version: 6.00 Build 0)  -->
<svg version="1.1" id="Layer_1" xmlns="http://www.w3.org/2000/svg" xmlns:xlink="http://www.w3.org/1999/xlink" x="0px" y="0px"
	 viewBox="0 0 283.46 113.39" style="enable-background:new 0 0 283.46 113.39;" xml:space="preserve">
<g id="Laag_1">
</g>
<g id="Laag_2">
	<path d="M70.37,68.23c-0.1,3.81-1.68,7.35-4.45,9.97c-2.67,2.53-6.14,3.91-9.8,3.91c-0.13,0-0.27,0-0.4-0.01H43.6
		c-1.57,0-2.83-1.27-2.83-2.83s1.27-2.83,2.83-2.83h12.2c2.37,0.05,4.56-0.77,6.22-2.35c1.67-1.58,2.62-3.71,2.68-6.01
		s-0.77-4.48-2.35-6.15c-1.58-1.67-3.71-2.62-6.01-2.68l-0.63-0.03H17.94c-1.57,0-2.83-1.27-2.83-2.83s1.27-2.83,2.83-2.83h37.99
		c4.71,0.08,8.64-3.64,8.77-8.36c0.06-2.3-0.77-4.48-2.35-6.15s-3.71-2.62-6.01-2.68H29.96c-1.57,0-2.83-1.27-2.83-2.83
		c0-1.56,1.27-2.83,2.83-2.83h26.45c3.89,0.1,7.43,1.69,10.05,4.45c2.62,2.77,4.01,6.39,3.9,10.2c-0.12,4.54-2.36,8.53-5.74,11.05
		C68.21,59.07,70.5,63.41,70.37,68.23z M57.56,44.9c0-1.53-1.24-2.77-2.77-2.77H17.94c-1.53,0-2.77,1.24-2.77,2.77
		s1.24,2.77,2.77,2.77h36.85C56.32,47.67,57.56,46.43,57.56,44.9z M57.56,67.8c0-1.53-1.24-2.77-2.77-2.77H30.94
		c-1.53,0-2.77,1.24-2.77,2.77s1.24,2.77,2.77,2.77h23.85C56.32,70.57,57.56,69.33,57.56,67.8z M25.3,67.8
		c0-1.53-1.24-2.77-2.77-2.77h-2.85c-1.53,0-2.77,1.24-2.77,2.77s1.24,2.77,2.77,2.77h2.85C24.06,70.57,25.3,69.33,25.3,67.8z
		 M12.36,44.9c0-1.53-1.24-2.77-2.77-2.77H6.74c-1.53,0-2.77,1.24-2.77,2.77s1.24,2.77,2.77,2.77h2.85
		C11.12,47.67,12.36,46.43,12.36,44.9z M36.46,76.44c-1.57,0-2.84,1.27-2.84,2.84s1.27,2.84,2.84,2.84s2.84-1.27,2.84-2.84
		S38.03,76.44,36.46,76.44z M22.82,30.68c-1.57,0-2.84,1.27-2.84,2.84c0,1.57,1.27,2.84,2.84,2.84s2.84-1.27,2.84-2.84
		C25.66,31.95,24.38,30.68,22.82,30.68z"/>
	<g>
		<path d="M90.1,66.57v2.02c0,1.26-0.98,2.24-2.18,2.24c-1.26,0-2.18-0.98-2.18-2.24V32.9c0-1.2,0.93-2.18,2.18-2.18
			c1.2,0,2.18,0.98,2.18,2.18v13.47C92.61,43.7,96.21,42,100.31,42c8.02,0,14.14,6.39,14.14,14.47s-6.11,14.47-14.14,14.47
			C96.22,70.93,92.61,69.3,90.1,66.57z M110.03,56.47c0-5.9-4.42-10.43-9.99-10.43c-5.46,0-9.72,4.31-9.94,9.99v0.87
			c0.22,5.68,4.48,9.99,9.94,9.99C105.61,66.9,110.03,62.36,110.03,56.47z"/>
		<path d="M116.74,56.47c0-8.08,6.22-14.47,14.41-14.47c3.98,0,7.32,1.53,9.44,3.49c0.49,0.44,0.82,1.04,0.82,1.69
			c0,0.55-0.16,1.04-0.71,1.64l-9.72,11.63c-0.44,0.49-0.93,0.71-1.53,0.71c-1.2,0-2.07-0.82-2.07-1.97c0-0.49,0.11-0.98,0.49-1.36
			l8.52-10.05c-1.42-1.2-3.44-1.75-5.24-1.75c-5.57,0-9.99,4.59-9.99,10.43c0,5.79,4.37,10.43,9.99,10.43
			c3.11,0,5.57-1.36,7.26-3.28c0.6-0.55,1.09-0.98,1.86-0.98c1.26,0,2.18,0.87,2.18,2.07c0,0.44-0.27,1.04-0.65,1.47
			c-2.29,2.73-6.06,4.75-10.65,4.75C123.02,70.93,116.74,64.55,116.74,56.47z"/>
		<path d="M167.5,66.57c-2.57,2.73-6.11,4.37-10.21,4.37c-8.02,0-14.14-6.39-14.14-14.47S149.26,42,157.29,42
			c4.09,0,7.64,1.69,10.21,4.37V44.3c0-1.2,0.98-2.18,2.18-2.18c1.26,0,2.18,0.98,2.18,2.18v24.29c0,1.26-0.93,2.24-2.18,2.24
			c-1.2,0-2.18-0.98-2.18-2.24V66.57z M167.5,56.91v-0.87c-0.22-5.68-4.53-9.99-9.94-9.99c-5.57,0-9.99,4.53-9.99,10.43
			s4.42,10.43,9.99,10.43C162.97,66.9,167.29,62.58,167.5,56.91z"/>
		<path d="M176.12,52.59c0-6.82,4.48-10.59,10.05-10.59c3.55,0,6.33,1.31,7.92,3.99c1.53-2.68,4.59-3.99,7.86-3.99
			c5.62,0,10.1,3.77,10.1,10.59v15.99c0,1.26-0.98,2.24-2.18,2.24c-1.26,0-2.18-0.98-2.18-2.24V52.54c0-4.31-2.51-6.5-5.73-6.5
			c-3.17,0-5.68,2.18-5.68,6.5v16.05c0,1.26-0.98,2.24-2.18,2.24c-1.26,0-2.18-0.98-2.18-2.24V52.54c0-4.31-2.51-6.5-5.73-6.5
			c-3.17,0-5.68,2.18-5.68,6.5v16.05c0,1.26-0.98,2.24-2.18,2.24c-1.26,0-2.18-0.98-2.18-2.24v-16H176.12z"/>
		<path d="M216.23,52.59c0-6.82,4.48-10.59,10.05-10.59c3.55,0,6.33,1.31,7.92,3.99c1.53-2.68,4.59-3.99,7.86-3.99
			c5.62,0,10.1,3.77,10.1,10.59v15.99c0,1.26-0.98,2.24-2.18,2.24c-1.26,0-2.18-0.98-2.18-2.24V52.54c0-4.31-2.51-6.5-5.73-6.5
			c-3.17,0-5.68,2.18-5.68,6.5v16.05c0,1.26-0.98,2.24-2.18,2.24c-1.26,0-2.18-0.98-2.18-2.24V52.54c0-4.31-2.51-6.5-5.73-6.5
			c-3.17,0-5.68,2.18-5.68,6.5v16.05c0,1.26-0.98,2.24-2.18,2.24c-1.26,0-2.18-0.98-2.18-2.24v-16H216.23z"/>
	</g>
	<g>
		<path d="M255.35,69.38c0-0.72,0.55-1.27,1.27-1.27c0.7,0,1.25,0.55,1.25,1.27c0,0.7-0.55,1.27-1.25,1.27
			C255.9,70.66,255.35,70.08,255.35,69.38z"/>
		<path d="M261.73,69.2v0.67c0,0.41-0.32,0.74-0.72,0.74c-0.41,0-0.72-0.32-0.72-0.74V58.44c0-0.4,0.31-0.72,0.72-0.72
			c0.4,0,0.72,0.32,0.72,0.72v4.1c0.83-0.88,2.02-1.44,3.37-1.44c2.65,0,4.66,2.11,4.66,4.77c0,2.67-2.02,4.77-4.66,4.77
			C263.75,70.64,262.56,70.1,261.73,69.2z M268.3,65.87c0-1.94-1.46-3.44-3.29-3.44c-1.8,0-3.2,1.42-3.28,3.29v0.29
			c0.07,1.87,1.48,3.29,3.28,3.29C266.84,69.31,268.3,67.82,268.3,65.87z"/>
		<path d="M271.38,65.87c0-2.67,2.05-4.77,4.75-4.77c1.31,0,2.41,0.5,3.12,1.15c0.16,0.14,0.27,0.34,0.27,0.56
			c0,0.18-0.05,0.34-0.23,0.54l-3.21,3.83c-0.14,0.16-0.31,0.23-0.5,0.23c-0.4,0-0.68-0.27-0.68-0.65c0-0.16,0.04-0.32,0.16-0.45
			l2.81-3.31c-0.47-0.4-1.13-0.58-1.73-0.58c-1.84,0-3.29,1.51-3.29,3.44c0,1.91,1.44,3.44,3.29,3.44c1.03,0,1.84-0.45,2.39-1.08
			c0.2-0.18,0.36-0.32,0.61-0.32c0.41,0,0.72,0.29,0.72,0.68c0,0.14-0.09,0.34-0.22,0.49c-0.76,0.9-2,1.57-3.51,1.57
			C273.45,70.64,271.38,68.54,271.38,65.87z"/>
	</g>
</g>
</svg>
