<?xml version="1.0" encoding="utf-8"?>
<!-- Generator: Adobe Illustrator 25.4.1, SVG Export Plug-In . SVG Version: 6.00 Build 0)  -->
<svg version="1.1" xmlns="http://www.w3.org/2000/svg" xmlns:xlink="http://www.w3.org/1999/xlink" x="0px" y="0px"
	 viewBox="0 0 283.46 113.39" style="enable-background:new 0 0 283.46 113.39;" xml:space="preserve">
<g id="Laag_1">
</g>
<g id="Laag_2">
	<path d="M84.04,68.52c-0.1,3.81-1.68,7.35-4.45,9.97c-2.67,2.53-6.14,3.91-9.8,3.91c-0.13,0-0.27,0-0.4-0.01l-12.12,0
		c-1.57,0-2.83-1.27-2.83-2.83s1.27-2.83,2.83-2.83h12.2c2.37,0.05,4.56-0.77,6.22-2.35c1.67-1.58,2.62-3.71,2.68-6.01
		s-0.77-4.48-2.35-6.15c-1.58-1.67-3.71-2.62-6.01-2.68l-0.63-0.03H31.61c-1.57,0-2.83-1.27-2.83-2.83s1.27-2.83,2.83-2.83H69.6
		c4.71,0.08,8.64-3.64,8.77-8.36c0.06-2.3-0.77-4.48-2.35-6.15s-3.71-2.62-6.01-2.68l-26.38,0c-1.57,0-2.83-1.27-2.83-2.83
		s1.27-2.83,2.83-2.83h26.45c3.89,0.1,7.43,1.69,10.05,4.45c2.62,2.77,4.01,6.39,3.9,10.2c-0.12,4.54-2.36,8.53-5.74,11.05
		C81.88,59.37,84.17,63.7,84.04,68.52z M71.23,45.19c0-1.53-1.24-2.77-2.77-2.77H31.61c-1.53,0-2.77,1.24-2.77,2.77
		s1.24,2.77,2.77,2.77h36.85C69.99,47.97,71.23,46.72,71.23,45.19z M71.23,68.1c0-1.53-1.24-2.77-2.77-2.77H44.61
		c-1.53,0-2.77,1.24-2.77,2.77s1.24,2.77,2.77,2.77h23.85C69.99,70.87,71.23,69.63,71.23,68.1z M38.98,68.1
		c0-1.53-1.24-2.77-2.77-2.77h-2.85c-1.53,0-2.77,1.24-2.77,2.77s1.24,2.77,2.77,2.77h2.85C37.73,70.87,38.98,69.63,38.98,68.1z
		 M26.03,45.19c0-1.53-1.24-2.77-2.77-2.77h-2.85c-1.53,0-2.77,1.24-2.77,2.77s1.24,2.77,2.77,2.77h2.85
		C24.79,47.97,26.03,46.72,26.03,45.19z M50.14,76.73c-1.57,0-2.84,1.27-2.84,2.84c0,1.57,1.27,2.84,2.84,2.84s2.84-1.27,2.84-2.84
		C52.97,78,51.7,76.73,50.14,76.73z M36.49,30.98c-1.57,0-2.84,1.27-2.84,2.84s1.27,2.84,2.84,2.84s2.84-1.27,2.84-2.84
		S38.06,30.98,36.49,30.98z"/>
	<g>
		<path d="M103.77,66.86v2.02c0,1.26-0.98,2.24-2.18,2.24c-1.26,0-2.18-0.98-2.18-2.24V33.2c0-1.2,0.93-2.18,2.18-2.18
			c1.2,0,2.18,0.98,2.18,2.18v13.47c2.51-2.67,6.11-4.37,10.21-4.37c8.02,0,14.14,6.39,14.14,14.47c0,8.08-6.11,14.47-14.14,14.47
			C109.89,71.23,106.29,69.59,103.77,66.86z M123.7,56.76c0-5.9-4.42-10.43-9.99-10.43c-5.46,0-9.72,4.31-9.94,9.99v0.87
			c0.22,5.68,4.48,9.99,9.94,9.99C119.28,67.19,123.7,62.66,123.7,56.76z"/>
		<path d="M130.41,56.76c0-8.08,6.22-14.47,14.41-14.47c3.98,0,7.32,1.53,9.44,3.49c0.49,0.44,0.82,1.04,0.82,1.69
			c0,0.55-0.16,1.04-0.71,1.64l-9.72,11.63c-0.44,0.49-0.93,0.71-1.53,0.71c-1.2,0-2.07-0.82-2.07-1.97c0-0.49,0.11-0.98,0.49-1.36
			l8.52-10.05c-1.42-1.2-3.44-1.75-5.24-1.75c-5.57,0-9.99,4.59-9.99,10.43c0,5.79,4.37,10.43,9.99,10.43
			c3.11,0,5.57-1.36,7.26-3.28c0.6-0.55,1.09-0.98,1.86-0.98c1.26,0,2.18,0.87,2.18,2.07c0,0.44-0.27,1.04-0.65,1.47
			c-2.29,2.73-6.06,4.75-10.65,4.75C136.69,71.23,130.41,64.84,130.41,56.76z"/>
		<path d="M181.18,66.86c-2.57,2.73-6.11,4.37-10.21,4.37c-8.02,0-14.14-6.39-14.14-14.47c0-8.08,6.11-14.47,14.14-14.47
			c4.09,0,7.64,1.69,10.21,4.37v-2.07c0-1.2,0.98-2.18,2.18-2.18c1.26,0,2.18,0.98,2.18,2.18v24.29c0,1.26-0.93,2.24-2.18,2.24
			c-1.2,0-2.18-0.98-2.18-2.24V66.86z M181.18,57.2v-0.87c-0.22-5.68-4.53-9.99-9.94-9.99c-5.57,0-9.99,4.53-9.99,10.43
			c0,5.9,4.42,10.43,9.99,10.43C176.65,67.19,180.96,62.88,181.18,57.2z"/>
		<path d="M189.79,52.89c0-6.82,4.48-10.59,10.05-10.59c3.55,0,6.33,1.31,7.92,3.99c1.53-2.68,4.59-3.99,7.86-3.99
			c5.62,0,10.1,3.77,10.1,10.59v15.99c0,1.26-0.98,2.24-2.18,2.24c-1.26,0-2.18-0.98-2.18-2.24V52.83c0-4.31-2.51-6.5-5.73-6.5
			c-3.17,0-5.68,2.18-5.68,6.5v16.05c0,1.26-0.98,2.24-2.18,2.24c-1.26,0-2.18-0.98-2.18-2.24V52.83c0-4.31-2.51-6.5-5.73-6.5
			c-3.17,0-5.68,2.18-5.68,6.5v16.05c0,1.26-0.98,2.24-2.18,2.24c-1.26,0-2.18-0.98-2.18-2.24V52.89z"/>
		<path d="M229.91,52.89c0-6.82,4.48-10.59,10.05-10.59c3.55,0,6.33,1.31,7.92,3.99c1.53-2.68,4.59-3.99,7.86-3.99
			c5.62,0,10.1,3.77,10.1,10.59v15.99c0,1.26-0.98,2.24-2.18,2.24c-1.26,0-2.18-0.98-2.18-2.24V52.83c0-4.31-2.51-6.5-5.73-6.5
			c-3.17,0-5.68,2.18-5.68,6.5v16.05c0,1.26-0.98,2.24-2.18,2.24c-1.26,0-2.18-0.98-2.18-2.24V52.83c0-4.31-2.51-6.5-5.73-6.5
			c-3.17,0-5.68,2.18-5.68,6.5v16.05c0,1.26-0.98,2.24-2.18,2.24c-1.26,0-2.18-0.98-2.18-2.24V52.89z"/>
	</g>
</g>
</svg>
