<?xml version="1.0" standalone="no"?>
<!DOCTYPE svg PUBLIC "-//W3C//DTD SVG 20010904//EN"
 "http://www.w3.org/TR/2001/REC-SVG-20010904/DTD/svg10.dtd">
<svg version="1.0" xmlns="http://www.w3.org/2000/svg"
 width="600.000000pt" height="400.000000pt" viewBox="0 0 600.000000 400.000000"
 preserveAspectRatio="xMidYMid meet">
<metadata>
Created by potrace 1.16, written by Peter Selinger 2001-2019
</metadata>
<g transform="translate(0.000000,400.000000) scale(0.100000,-0.100000)"
fill="#000000" stroke="none">
<path d="M0 2000 l0 -2000 3000 0 3000 0 0 2000 0 2000 -3000 0 -3000 0 0
-2000z m5990 0 l0 -1990 -2990 0 -2990 0 0 1990 0 1990 2990 0 2990 0 0 -1990z"/>
<path d="M2535 3219 c-82 -10 -167 -43 -247 -96 -219 -144 -319 -438 -234
-684 40 -114 102 -194 289 -371 358 -338 445 -441 544 -646 55 -113 72 -132
116 -132 32 0 57 30 104 131 84 177 184 304 399 504 320 297 399 394 445 546
29 97 23 250 -14 351 -70 192 -224 336 -408 384 -91 24 -226 21 -314 -6 -69
-21 -164 -68 -197 -97 -15 -14 -20 -13 -45 5 -122 86 -295 130 -438 111z"/>
<path d="M1503 2219 c-288 -48 -506 -327 -479 -613 33 -358 258 -564 636 -583
99 -5 137 -1 270 23 128 23 184 28 320 28 154 0 170 -1 243 -27 86 -30 156
-71 231 -136 75 -65 116 -76 154 -41 31 29 29 87 -9 201 -38 115 -137 325
-208 439 -119 191 -311 396 -473 503 -154 103 -345 180 -511 207 -71 11 -101
11 -174 -1z"/>
<path d="M4292 2215 c-445 -83 -822 -403 -1066 -904 -69 -141 -136 -330 -136
-380 0 -37 38 -81 70 -81 31 0 72 24 137 81 74 65 175 113 283 135 109 22 278
15 485 -21 221 -37 345 -32 507 21 95 31 177 83 246 158 123 131 184 385 136
570 -75 289 -369 477 -662 421z"/>
</g>
</svg>
