<?xml version="1.0" standalone="no"?>
<!DOCTYPE svg PUBLIC "-//W3C//DTD SVG 20010904//EN"
 "http://www.w3.org/TR/2001/REC-SVG-20010904/DTD/svg10.dtd">
<svg version="1.0" xmlns="http://www.w3.org/2000/svg"
 width="2500.000000pt" height="811.000000pt" viewBox="0 0 2500.000000 811.000000"
 preserveAspectRatio="xMidYMid meet">
<metadata>
Created by potrace 1.16, written by Peter Selinger 2001-2019
</metadata>
<g transform="translate(0.000000,811.000000) scale(0.100000,-0.100000)"
fill="#000000" stroke="none">
<path d="M3415 7179 c-200 -21 -358 -91 -481 -215 -70 -69 -89 -96 -132 -185
-56 -115 -66 -150 -117 -399 -85 -413 -17 -597 313 -852 222 -171 332 -316
332 -436 0 -20 -20 -129 -45 -241 -53 -244 -71 -281 -154 -323 -45 -23 -68
-28 -129 -28 -122 0 -174 40 -173 134 0 32 54 319 86 454 l5 22 -253 0 -253 0
-49 -232 c-54 -257 -63 -337 -53 -447 17 -185 140 -308 358 -357 105 -24 375
-24 484 0 220 48 368 142 475 301 72 108 103 200 166 495 54 253 56 270 52
375 -10 221 -93 358 -327 539 -207 160 -313 280 -345 391 -15 50 -14 58 15
201 42 206 54 244 94 291 46 52 102 75 191 76 112 0 175 -45 175 -129 0 -24
-20 -139 -45 -255 -25 -117 -45 -216 -45 -221 0 -4 113 -7 252 -6 l252 3 49
225 c77 362 75 504 -11 630 -105 154 -358 224 -687 189z"/>
<path d="M4366 5638 c-176 -827 -321 -1509 -324 -1515 -3 -10 49 -13 241 -13
187 0 246 3 249 13 3 6 81 371 174 809 93 439 171 798 174 798 3 0 21 -365 40
-810 l34 -810 175 2 174 3 370 802 c204 442 372 801 375 799 3 -4 -320 -1540
-334 -1588 -5 -17 11 -18 238 -18 l244 0 319 1498 c175 823 320 1505 323 1515
4 16 -13 17 -250 17 l-255 0 -499 -1019 c-274 -561 -501 -1018 -503 -1015 -3
2 -137 1942 -141 2027 0 4 -114 7 -253 7 l-252 0 -319 -1502z"/>
<path d="M7242 6138 c-216 -552 -473 -1226 -571 -1498 -99 -272 -182 -503
-186 -513 -7 -16 7 -17 250 -15 l258 3 115 318 115 317 249 0 248 0 -5 -57
c-7 -76 -35 -523 -35 -557 l0 -26 255 0 255 0 0 28 c0 15 14 232 30 482 25
378 99 2204 100 2453 l0 67 -343 0 -343 0 -392 -1002z m542 -349 c-20 -327
-38 -595 -39 -597 -1 -1 -83 -1 -182 0 l-179 3 215 597 c119 328 217 595 219
594 1 -2 -14 -270 -34 -597z"/>
<path d="M9119 7138 c0 -2 -146 -682 -323 -1513 l-322 -1510 249 -3 c138 -1
252 -1 253 1 2 2 66 297 142 655 77 359 141 654 144 657 2 3 15 6 28 7 l24 3
81 -660 80 -660 277 -3 278 -2 -6 27 c-3 16 -60 332 -127 703 l-122 675 77 31
c182 73 308 194 378 362 44 105 151 621 157 757 12 264 -89 403 -334 459 -61
13 -140 16 -502 16 -237 0 -431 -1 -432 -2z m677 -451 c88 -45 90 -85 24 -392
-63 -298 -66 -306 -108 -355 -58 -69 -99 -84 -239 -88 -68 -2 -123 -2 -123 0
0 6 157 750 171 812 l12 49 117 -6 c75 -3 128 -10 146 -20z"/>
<path d="M10715 7128 c-6 -20 -85 -397 -85 -408 0 -6 88 -11 228 -12 l229 -3
-273 -1285 c-151 -707 -274 -1291 -274 -1298 0 -10 54 -12 252 -10 l251 3 276
1298 275 1297 231 0 231 0 43 198 c23 108 45 205 47 215 5 16 -33 17 -711 17
-564 0 -716 -3 -720 -12z"/>
<path d="M12450 7137 c0 -2 -144 -680 -320 -1507 -176 -827 -320 -1507 -320
-1512 0 -4 110 -8 244 -8 l243 0 23 108 c13 59 91 429 175 822 l152 715 7
-115 c6 -107 66 -1474 66 -1512 0 -16 15 -18 174 -18 l174 0 373 810 c205 445
375 808 376 806 2 -2 -71 -354 -162 -782 -92 -428 -169 -791 -172 -807 l-6
-27 243 2 243 3 322 1510 321 1510 -245 3 c-135 1 -250 1 -256 -2 -5 -2 -235
-464 -510 -1026 -444 -909 -500 -1018 -503 -984 -11 155 -132 1969 -132 1989
l0 25 -255 0 c-140 0 -255 -2 -255 -3z"/>
<path d="M15955 7124 c-456 -77 -857 -356 -1089 -759 -84 -147 -153 -342 -181
-520 -22 -132 -20 -377 4 -517 75 -437 346 -827 736 -1062 32 -20 56 -36 53
-36 -21 0 -420 -75 -533 -100 -1176 -261 -2298 -716 -3600 -1460 -422 -241
-443 -250 -695 -324 -1127 -329 -2124 -510 -3185 -578 -248 -15 -970 -16
-1205 0 -239 16 -557 47 -740 73 -1199 165 -2281 556 -3170 1144 -181 119
-399 281 -407 300 -2 8 6 29 20 47 40 53 86 153 102 220 19 83 19 244 -1 322
-45 176 -173 335 -334 415 -358 176 -788 -1 -906 -373 -34 -107 -41 -235 -20
-336 50 -239 239 -436 476 -496 64 -16 237 -23 276 -10 15 4 22 -3 35 -32 12
-28 58 -75 170 -171 1111 -955 2523 -1592 3960 -1785 1006 -136 2008 -76 3034
181 675 169 1326 412 2025 755 219 108 272 130 505 205 2181 705 3987 1083
5567 1164 300 15 1041 7 1278 -15 860 -79 1495 -243 2080 -537 369 -185 605
-356 913 -659 114 -113 216 -208 225 -212 30 -12 102 -8 132 7 68 35 96 122
62 196 -23 53 -251 288 -427 440 -691 601 -1275 968 -1999 1258 -170 68 -511
184 -642 218 l-69 18 139 5 138 5 370 945 c286 733 778 2044 778 2075 0 3
-114 5 -253 5 -254 0 -254 0 -264 -22 -5 -13 -191 -526 -414 -1140 -222 -614
-405 -1116 -406 -1115 -1 2 129 2084 140 2225 l4 52 -254 0 c-139 0 -253 -1
-254 -2 -1 -2 -16 -226 -34 -498 -23 -342 -43 -796 -66 -1465 -18 -533 -33
-971 -34 -972 0 -1 -62 9 -137 22 -176 31 -433 63 -627 78 l-153 12 48 35
c310 222 526 558 611 950 26 121 26 468 0 590 -136 640 -630 1123 -1255 1231
-136 23 -401 25 -527 3z m518 -608 c337 -101 584 -362 669 -706 27 -108 29
-300 5 -406 -90 -398 -401 -689 -801 -750 -287 -44 -579 52 -795 260 -125 121
-206 253 -258 423 -24 80 -27 103 -27 258 -1 149 2 180 22 249 89 309 312 549
607 655 116 42 181 51 340 47 127 -3 164 -8 238 -30z m-14899 -2520 c196 -96
239 -353 85 -507 -154 -154 -409 -109 -506 89 -38 78 -40 194 -4 262 35 66 60
97 103 127 99 68 219 79 322 29z m15736 0 c632 -66 1146 -192 1743 -426 31
-13 56 -24 54 -26 -2 -2 -61 8 -133 21 -294 57 -689 105 -1039 125 -221 13
-877 13 -1120 0 -1220 -65 -2587 -305 -4104 -720 -162 -44 -296 -79 -298 -77
-5 5 304 152 520 248 1098 487 2212 789 3172 859 83 6 166 12 185 14 19 2 222
3 450 1 293 -2 461 -8 570 -19z m-13200 -2158 c663 -200 1327 -316 2130 -370
234 -15 1006 -15 1245 0 450 30 816 69 1199 128 126 19 243 37 260 40 46 6
-32 -17 -234 -69 -1448 -375 -2919 -329 -4281 132 -175 59 -509 187 -519 198
-3 3 4 3 15 -1 11 -4 94 -30 185 -58z"/>
<path d="M16121 5925 c-129 -36 -217 -135 -243 -273 -9 -50 -8 -72 6 -129 41
-170 185 -274 357 -260 260 22 396 315 246 533 -78 113 -231 167 -366 129z"/>
<path d="M20115 7128 c-2 -7 -144 -672 -315 -1478 -171 -806 -315 -1482 -320
-1502 l-8 -38 647 0 647 0 43 203 c23 111 45 210 47 219 5 17 -20 18 -388 20
l-394 3 67 315 c36 173 77 363 89 423 l23 107 338 0 339 0 5 23 c21 90 85 400
85 412 0 13 -43 15 -336 15 l-336 0 5 23 c3 12 42 195 87 407 45 212 84 395
87 408 l5 22 394 0 c217 0 394 2 394 4 0 3 20 98 45 213 25 114 45 209 45 210
0 2 -290 3 -645 3 -508 0 -647 -3 -650 -12z"/>
<path d="M22380 2516 c-158 -46 -277 -174 -311 -334 -20 -99 -7 -193 42 -292
37 -75 55 -98 152 -190 286 -272 343 -338 432 -506 47 -88 52 -94 84 -94 37 0
45 8 79 76 62 124 154 247 261 349 260 248 296 288 337 369 34 70 39 88 42
172 5 119 -19 206 -81 291 -76 102 -188 162 -323 170 -108 7 -201 -19 -266
-76 l-45 -40 -24 25 c-13 14 -52 39 -86 56 -54 26 -76 31 -156 34 -56 2 -109
-2 -137 -10z m245 -150 c53 -25 110 -78 143 -134 l19 -33 26 44 c55 93 144
146 243 147 82 0 144 -23 203 -76 70 -63 105 -138 105 -224 0 -123 -37 -173
-336 -456 -100 -95 -214 -244 -233 -306 -6 -18 -12 -12 -41 42 -56 106 -142
207 -285 337 -202 182 -260 268 -260 379 0 88 26 151 90 215 66 65 118 87 211
88 49 1 78 -5 115 -23z"/>
<path d="M13348 2304 c-15 -8 -32 -23 -38 -34 -15 -27 -14 -1291 1 -1323 15
-33 49 -47 114 -47 74 0 103 25 119 105 6 33 16 58 21 55 6 -3 23 -25 40 -50
61 -90 148 -124 308 -118 92 3 109 6 169 36 82 40 139 102 183 197 45 97 59
170 58 310 -1 254 -88 422 -251 486 -46 18 -77 22 -157 22 -123 0 -191 -23
-263 -89 -28 -24 -53 -44 -56 -44 -3 0 -6 102 -6 226 0 128 -4 233 -10 244 -5
10 -24 23 -41 29 -46 16 -159 13 -191 -5z m565 -630 c86 -44 121 -116 121
-254 0 -120 -23 -189 -82 -249 -38 -40 -57 -51 -100 -60 -151 -32 -259 75
-270 270 -8 142 33 241 117 286 55 29 164 32 214 7z"/>
<path d="M19413 2310 c-55 -23 -54 -5 -51 -671 l3 -614 24 -42 c46 -80 146
-122 256 -107 98 13 135 48 135 130 0 45 -4 56 -27 74 -21 17 -37 21 -65 17
-25 -3 -41 0 -49 9 -9 10 -11 161 -8 589 l4 574 -23 23 c-19 19 -35 23 -100
25 -42 2 -87 -1 -99 -7z"/>
<path d="M16610 1930 c-136 -13 -245 -66 -307 -148 -41 -54 -53 -98 -53 -192
0 -94 21 -141 85 -198 60 -52 119 -75 287 -107 171 -32 196 -40 225 -67 29
-27 29 -57 2 -87 -32 -34 -66 -44 -155 -43 -99 0 -158 23 -224 86 -65 63 -89
76 -137 76 -30 0 -50 -7 -70 -24 -24 -20 -27 -31 -27 -78 0 -69 37 -135 102
-183 176 -129 556 -118 721 21 69 58 104 177 81 275 -26 109 -125 168 -358
214 -143 28 -207 49 -238 77 -47 43 -32 124 27 149 49 20 185 18 226 -4 18 -9
51 -42 73 -72 49 -66 91 -84 158 -65 64 17 82 40 82 105 0 31 -6 71 -14 89
-18 42 -75 100 -126 126 -79 41 -236 62 -360 50z"/>
<path d="M17604 1929 c-234 -26 -368 -164 -352 -363 14 -170 112 -236 430
-291 54 -9 117 -26 140 -38 40 -20 43 -25 43 -61 0 -30 -6 -43 -25 -57 -39
-29 -122 -41 -198 -29 -80 13 -112 29 -176 90 -64 59 -84 70 -136 70 -60 0
-90 -33 -90 -100 0 -63 25 -114 79 -163 88 -79 191 -111 366 -110 231 0 380
67 441 198 27 56 32 148 13 206 -30 88 -127 145 -317 186 -251 53 -302 78
-302 146 0 70 59 107 170 107 76 -1 126 -26 188 -97 57 -67 88 -79 156 -63 53
12 77 39 83 92 10 86 -50 178 -147 228 -86 44 -234 63 -366 49z"/>
<path d="M18648 1930 c-132 -24 -239 -85 -305 -175 -153 -205 -129 -566 48
-743 95 -95 199 -132 369 -132 162 0 272 34 355 111 86 79 111 178 61 236 -21
24 -31 28 -79 28 -53 0 -57 -2 -116 -58 -68 -65 -105 -84 -184 -93 -149 -18
-286 92 -275 222 l3 39 327 5 c323 5 328 5 350 28 19 18 23 36 26 99 11 211
-85 354 -279 414 -70 22 -231 32 -301 19z m227 -229 c47 -22 89 -64 104 -104
14 -37 14 -43 -5 -61 -13 -14 -48 -16 -224 -16 -238 0 -240 1 -215 73 18 52
41 75 100 103 65 31 180 33 240 5z"/>
<path d="M20185 1929 c-167 -17 -300 -101 -341 -216 -20 -57 -17 -189 5 -238
24 -53 100 -119 165 -144 28 -10 122 -33 210 -50 168 -33 213 -51 223 -89 16
-67 -48 -105 -173 -105 -99 1 -158 24 -224 87 -65 63 -89 76 -137 76 -29 0
-50 -7 -69 -23 -23 -20 -27 -31 -27 -78 0 -63 18 -104 69 -154 80 -80 203
-119 379 -118 184 0 300 38 387 124 72 72 95 170 63 277 -30 99 -124 151 -367
200 -199 41 -249 68 -251 136 -2 67 62 106 168 106 91 -1 146 -30 192 -103 14
-22 39 -45 59 -53 47 -20 115 -9 149 22 21 19 25 32 25 79 0 31 -6 71 -14 89
-18 42 -75 100 -126 126 -81 41 -238 63 -365 49z"/>
<path d="M15223 1906 c-17 -8 -36 -23 -42 -35 -14 -25 -14 -575 -1 -677 18
-141 76 -241 164 -284 66 -31 156 -43 240 -30 114 18 182 64 230 158 21 40 31
35 40 -19 15 -94 55 -125 153 -117 45 4 61 10 78 31 22 25 22 29 27 464 3 241
1 450 -4 464 -13 37 -47 49 -138 49 -88 0 -123 -11 -138 -44 -6 -14 -8 -103
-5 -237 6 -240 -3 -333 -42 -409 -52 -102 -177 -131 -259 -59 -61 53 -66 86
-66 410 l0 288 -24 28 c-22 25 -31 28 -103 31 -51 1 -89 -3 -110 -12z"/>
<path d="M14462 1885 c-18 -23 -20 -48 -24 -457 -4 -300 -2 -444 6 -468 15
-47 45 -60 144 -60 75 0 85 2 107 25 l25 24 0 217 c0 120 5 245 11 279 22 129
85 190 210 204 122 14 139 31 139 147 0 56 -4 68 -25 89 -20 21 -33 25 -88 25
-108 0 -170 -32 -234 -122 -41 -56 -44 -54 -63 34 -15 75 -34 88 -121 88 -60
0 -70 -3 -87 -25z"/>
<path d="M21615 1750 c-119 -38 -230 -141 -276 -257 -19 -48 -23 -77 -24 -169
0 -107 1 -112 37 -185 47 -95 121 -167 220 -214 124 -59 237 -63 503 -19 212
34 367 -1 519 -120 65 -51 84 -56 111 -26 56 62 -85 384 -265 605 -76 93 -202
212 -279 264 -79 54 -189 106 -266 126 -81 21 -205 18 -280 -5z"/>
<path d="M23670 1754 c-86 -23 -207 -85 -297 -153 -202 -152 -402 -423 -486
-656 -36 -102 -42 -150 -23 -180 24 -37 55 -31 116 21 136 116 310 156 520
119 145 -26 280 -35 355 -25 158 22 323 144 376 277 20 49 24 76 24 173 0 109
-2 119 -32 182 -78 166 -229 259 -416 257 -45 0 -107 -7 -137 -15z"/>
<path d="M12862 1173 c-44 -21 -66 -66 -66 -133 -1 -104 53 -154 164 -154 117
1 165 45 165 154 0 78 -19 114 -70 136 -46 19 -152 18 -193 -3z"/>
</g>
</svg>
